<svg xmlns="http://www.w3.org/2000/svg" display="none" version="1.1">
  <symbol id="dribbble" viewBox="0 0 20 20">
    <path fill="#ea4c89" d="M10 20C4.486 20 0 15.514 0 10S4.486 0 10 0s10 4.486 10 10-4.486 10-10 10zM9.462 7.205c-1.354-2.398-2.8-4.418-3.09-4.82C4.042 3.498 2.3 5.643 1.74 8.225h.084c.778 0 4.003-.064 7.636-1.02zm2.005 4.253c-4.627 1.612-6.38 4.77-6.62 5.245C6.275 17.803 8.06 18.46 10 18.46c1.156 0 2.258-.233 3.263-.655-.135-.786-.627-3.325-1.786-6.35-.004 0-.006.002-.01.003zm4.1-7.794c-1.488-1.306-3.437-2.1-5.567-2.1-.655 0-1.293.077-1.905.22.343.464 1.79 2.463 3.108 4.88 2.85-1.08 4.128-2.678 4.363-3zm-4.99 6.375l.282-.09c-.21-.45-.42-.91-.65-1.35-3.75 1.11-7.39 1.2-8.44 1.2-.1 0-.17 0-.22-.01-.01.07-.01.14-.01.21 0 2.14.8 4.1 2.12 5.59.35-.59 2.68-4.21 6.9-5.57zm2.588 1c1.05 2.9 1.506 5.28 1.62 5.93 1.85-1.28 3.167-3.27 3.55-5.58-.322-.1-1.703-.49-3.468-.49-.54 0-1.112.03-1.702.12zM11.9 8.01c.19.39.373.786.543 1.185l.17.405c.653-.08 1.305-.112 1.925-.112 1.92 0 3.53.3 3.908.38-.032-1.946-.726-3.735-1.867-5.15-.3.383-1.73 2.076-4.68 3.296z"/>
  </symbol>
  <symbol id="github" viewBox="0 0 20 20">
    <path fill="#333" d="M10 0C4.477 0 0 4.59 0 10.253c0 4.53 2.865 8.373 6.84 9.73.5.093.68-.223.68-.495 0-.243-.007-.888-.012-1.744-2.782.62-3.37-1.374-3.37-1.374-.453-1.185-1.11-1.5-1.11-1.5-.907-.636.07-.624.07-.624 1.003.073 1.53 1.057 1.53 1.057.893 1.567 2.342 1.114 2.912.852.09-.662.35-1.114.635-1.37-2.22-.26-4.555-1.14-4.555-5.068 0-1.12.39-2.035 1.03-2.75-.104-.26-.447-1.303.097-2.715 0 0 .84-.275 2.75 1.052.797-.228 1.653-.342 2.503-.346.85.004 1.705.118 2.504.346 1.91-1.327 2.747-1.052 2.747-1.052.55 1.412.21 2.455.1 2.714.65.716 1.03 1.632 1.03 2.75 0 3.94-2.34 4.807-4.56 5.06.36.317.68.943.68 1.9 0 1.37-.01 2.476-.01 2.812 0 .274.18.593.69.493 3.96-1.35 6.82-5.19 6.82-9.72C20 4.59 15.53 0 10 0"/>
  </symbol>
  <symbol id="codepen" fill-rule="evenodd" viewBox="0 0 20 20">
    <path fill="#111" d="M10 0C4.477 0 0 4.477 0 10s4.477 10 10 10 10-4.477 10-10S15.523 0 10 0zm5.12 10.89L13.79 10l1.33-.89v1.78zm-4.59 3.77v-2.48l2.305-1.54 1.86 1.243-4.164 2.776zM10 11.256L8.12 10 10 8.743 11.88 10 10 11.257zm-.53 3.402L5.305 11.88l1.86-1.242 2.304 1.54v2.48zM4.88 9.11l1.33.89-1.33.89V9.11zm4.59-3.77v2.48L7.164 9.36l-1.86-1.243L9.47 5.34zm1.06 0l4.165 2.777-1.86 1.244-2.304-1.54V5.34zm5.648 2.707c0-.008-.003-.015-.004-.023-.003-.015-.005-.03-.01-.045 0-.01-.005-.02-.007-.03l-.014-.04-.012-.03c0-.02-.01-.03-.01-.04l-.01-.03-.02-.04-.02-.03-.02-.03-.02-.02-.03-.03-.02-.02s0-.01-.01-.01L10.3 3.9c-.18-.12-.41-.12-.59 0L4.052 7.675l-.008.007c-.01.01-.016.017-.024.02l-.03.028-.02.02c-.01.01-.02.02-.02.03l-.02.02-.02.03-.01.026-.02.035c-.002.01-.01.02-.01.03-.005.01-.01.03-.014.04l-.01.03-.01.05v.03c-.004.03-.006.05-.006.07V12l.01.044.01.023.012.04.01.02c.005.01.01.025.017.037l.01.022.02.038c0 .01.01.02.02.027l.02.03.02.02.03.03.02.02.01.01 5.65 3.77c.09.06.19.09.29.09.1 0 .21-.03.3-.09l5.65-3.77v-.01c.01 0 .01-.01.02-.02l.04-.03.02-.02.03-.03.01-.02c.01-.01.02-.02.02-.03l.01-.02.02-.03.013-.02.02-.04.01-.02.01-.05v-3.9c0-.02 0-.04-.006-.07z"/>
  </symbol>
  <symbol id="twitter" viewBox="0 0 20 17">
    <path fill="#55acee" d="M6.29 17c-2.317 0-4.474-.71-6.29-1.928.32.04.648.06.98.06 1.92 0 3.69-.686 5.095-1.837-1.796-.035-3.31-1.276-3.833-2.98.25.05.507.076.772.076.374 0 .736-.05 1.08-.15C2.22 9.85.804 8.12.804 6.04v-.06c.554.32 1.187.513 1.86.535-1.1-.77-1.826-2.083-1.826-3.572 0-.786.202-1.524.555-2.157C3.416 3.382 6.44 5.09 9.85 5.27c-.07-.314-.107-.642-.107-.978C9.743 1.922 11.58 0 13.847 0c1.18 0 2.246.52 2.995 1.355.935-.192 1.813-.55 2.605-1.04-.306 1-.956 1.842-1.804 2.373.83-.104 1.62-.334 2.357-.676-.55.86-1.246 1.617-2.047 2.222.007.184.01.37.01.555C17.963 10.46 13.838 17 6.29 17"/>
  </symbol>
  <symbol id="bitpodcast" viewBox="-0.25 0 18 20">
    <path fill-rule="evenodd" d="M4 2H2v16h2v2H0V0h4v2zm10 0l2-.02v16L14 18v2h4V0h-4v2z"/>
  </symbol>
  <symbol id="anchor" viewBox="-0.1 0 24 22">
    <path d="M23.946 11.622l.004 4.392-1.71-.714c-1.776 3.95-5.624 6.7-10.26 6.7-4.634 0-8.48-2.75-10.258-6.7l-1.71.714.005-4.392c-.072-.267.087-.54.354-.612l4.66 1.962-1.64 1.33c1.33 3.05 4.16 5.247 7.61 5.613V7.858C9.28 7.413 8 5.862 8 4c0-2.21 1.79-4 4-4 2.207 0 4 1.79 4 4 0 1.862-1.28 3.413-3 3.858v12.057c3.442-.367 6.262-2.572 7.577-5.633l-1.62-1.31 4.65-1.962c.264.07.423.34.352.61zM13.98 4c0-1.104-.895-2-2-2-1.103 0-2 .896-2 2s.897 2 2 2c1.105 0 2-.896 2-2z"/>
  </symbol>
  <symbol id="basekit" viewBox="-1 0 21 15">
    <path d="M9.987 13.426c-.58.524-1.592.785-3.035.785H0V.5h6.704c1.547 0 2.582.287 3.104.86.535.496.8 1.397.8 2.707 0 1.035-.183 1.797-.552 2.285-.293.356-.743.607-1.353.75v.07c.67.078 1.17.29 1.497.637.328.34.532.72.612 1.14.08.42.12.89.12 1.43 0 1.48-.316 2.49-.945 3.03zm-3.07-7.222c.433-.077.728-.28.886-.605.16-.33.238-.76.238-1.28 0-.51-.08-.9-.24-1.15-.12-.17-.3-.27-.54-.33-.23-.06-.61-.09-1.13-.09H2.57v3.49h3.51c.403 0 .682-.02.836-.04zm-.374 2.048H2.57v3.71h3.835c.467 0 .833-.036 1.1-.107.56-.21.84-.77.84-1.683 0-.756-.112-1.268-.34-1.535-.26-.256-.748-.385-1.462-.385zm10.23 5.96l-5.833-7.02L16.312.5h3.134l-5.402 6.71 5.955 7h-3.23z"/>
  </symbol>
  <symbol id="arjbuilders" viewBox="0 1 20 19">
    <path d="M4.765 16.006c-.2.454-.286.818-.286 1.12 0 .788.79 1.182 2.42 1.182v.878H0v-.878c.998 0 1.712-.182 2.168-.515.457-.333.913-1.06 1.34-2.15L9.7.5h.6l6.22 15.143c.427 1.06.827 1.756 1.197 2.06.486.393 1.227.605 2.283.605v.878h-9.358v-.878c1.797 0 2.454-.364 2.454-1.12 0-.273-.115-.667-.314-1.182l-1.2-2.877H5.935L4.765 16zM8.755 6.2l-2.253 5.542h4.537L8.75 6.2z"/>
  </symbol>
  <symbol id="ls" viewBox="0 0 20 20">
    <path d="M4.847 0h13.15L13.15 4.847H4.847v8.303L0 17.993V4.847L4.847 0zm10.306 20.002H2.005l4.845-4.85h8.303v-8.3L20 2.005v13.147l-4.847 4.85z"/>
  </symbol>
  <symbol id="lincolnshire" viewBox="-1 0 15 20">
    <path d="M3.55 0c-.4.15-.92.48-.93.88-.3-.08-.7.54-.76.28-.4.4-.7.35-1.05.66-.36.7-.22 1.3-.28 1.75-.3-.22-.76.3-.37.45.3.36.3.74.2.84.34 0 1.12-.16 1.2.2-.4.23.1.7.13.74.2.32.13.57.08.63-.2.37.4.24.24.6 0 .16 0 .35.08.4.2.72-.2.3-.23.74.23.3-.28.77.33.7.24-.6 1.14-.1.7.46-.37 0-.8.35-.87.7.44-.05.5.13.44.7 0 .2-.2.34 0 .52-.32.5.48.77.15.9-.2.18-.56.13-.65.67-.47.1-.5.57-.15.88-.13.6.4.46.12 1.05-.2.32.1.4.02.63.32.2.6 1.03.9 1.5-.07.68.23 1.23.8.9.14.28.53.1.75.5-.08.32.42.36.63.4.32-.06.8.27.33.68-.25.23-.7.22-.77.28.28.72.64-.15 1.1.24.4-.1.85-.46 1.1-.53.42.12.6.64 1.04.14.28.2.4.15.76.27.45-.37.95-.46 1.48-.17.62.08.67-.58.68-1.08.48-.08 1-.47 1.55-.32.08-.26.85-.53.8-.7-.4-.28.1-.46.05-.9-.53.15-.68-.25-.55-.7.12-.48-.26-.9-.35-.95.1-.4-.5.32-.35-.2-.44.4-.22-.1.1-.22.3-.2.56-.22.7-.14.16-.6-.52-.66-.5-.26-.4-.1-.66.95-.78.7.55-.62-.43-.3-.64.13-.13.1.43-.46.52-.63.53-.3.95-1.05 1.5-1.05-.34-.2 1-.4.95-1.1.2-.6.54-2.03.23-2.87-.22-1.45-.93-2.07-1.2-3.47-.45-.77-.66-1.75-1.4-1.96-.35-.28-.88-.22-1.1-.8-.34-.5-.77-.5-1.28-.77-.72-.5-1.4-1.17-1.8-2.12-.54-.26-1.38.5-1.88.1-.5.3-1.2.44-1.6-.24-.05-.06-.13-.04-.2-.08zm9.63 6.94c.03.1.04-.05 0 0zm-1.94 7.68c0 .1.1-.05 0 0zm0 .03c-.06-.02-.05.12 0 0zm1.5 1.4c.08.04.03-.17 0 0zm-.24-2.1c.08-.02 0 .1 0 0zm-.08.18c.07-.04-.03.1 0 0zm.24.17c.1-.04 0 .1 0 0zm-1.87.5c.06 0-.02.1 0 0zm.03.1c.08.04-.03.07 0 0zm.6.15c.1-.04 0 .1 0 0zm-.08.04c.07-.05-.03.1 0 0zm.94.03c0 .12 0 .06 0 0zm-1.54.04c-.1.14-.2.18 0 0zm1.47.07c.08 0-.04.13 0 0zm.25 0c.06-.04-.03.1 0 0z"/>
  </symbol>
  <symbol id="e" viewBox="0 0 20 19">
    <path d="M20 11.95c-2.47 3.62-5.955 5.416-9.592 5.416-2.392 0-4.28-1.025-5.106-2.792-.508-1.06-.704-2.318-.782-4.99 1.292 1.18 2.708 1.69 4.513 1.69 3.93 0 6.6-2.24 6.6-5.538C15.633 2.316 12.69 0 8.21 0 2.908.002 0 3.26 0 9.272c0 6.088 3.457 9.506 9.546 9.506 2.238 0 4.4-.548 6.322-1.65 1.536-.902 2.762-2.005 4.132-3.693V11.95zM7.896 1.26c2.043 0 3.337 1.572 3.337 4.047v.274c-.115 2.59-1.293 4.05-3.337 4.05-2.12 0-3.34-1.26-3.34-3.57 0-3.1 1.18-4.79 3.34-4.79z"/>
  </symbol>
  <symbol id="alembic" viewBox="0 0 20 18">
    <path fill-rule="evenodd" d="M13.42 7c0-1.33-.4-2.57-1.1-3.6l6.8 2.27.17-.47-9.58-4A6.4 6.4 0 0 0 .6 7h12.82zM9.5.47A7 7 0 0 0 0 7c0 1.68.6 3.22 1.57 4.42h-.4c-.2 0-.37.16-.37.36v.5c0 .2.16.35.36.35h.58l-.9 4.87c-.03.18.1.34.28.34h.48c.18 0 .38-.15.4-.34l.35-1.87h3.87v1.87c0 .18.16.34.35.34h.5c.2 0 .35-.15.35-.34V14c1.3-.08 2.52-.5 3.53-1.2l.3 1.63H8.18c-.2 0-.36.16-.36.36v.48c0 .2.16.35.36.35h3.3l.34 1.87c.03.18.2.34.4.34h.48c.18 0 .32-.15.28-.34l-.9-4.87h.6c.2 0 .36-.16.36-.36v-.5c0-.2-.16-.35-.36-.35h-.23a6.98 6.98 0 0 0 1.1-6.98l5.73 1.9c.1.05.22 0 .26-.1L20 5.05a.2.2 0 0 0-.12-.27L9.88.6 9.55.48H9.5zM2.9 12.7l-.33 1.74h3.65v-.46a6.97 6.97 0 0 1-3.32-1.3z"/>
  </symbol>
  <symbol id="drum" viewBox="0 0 24 20">
    <path d="M2 6.21V16c.4.31 1.1.64 1.99.93A27.1 27.1 0 0 0 12 18c3.08 0 5.95-.4 8.01-1.07A7.1 7.1 0 0 0 22 16V6.21C19.85 7.3 16.17 8 12 8S4.15 7.29 2 6.21zM24 4v12c0 2.2-5.37 4-12 4S0 18.2 0 16V4c0-2.2 5.37-4 12-4s12 1.8 12 4zm-3.99-.93A27.1 27.1 0 0 0 12 2c-3.08 0-5.95.4-8.01 1.07-.9.3-1.58.62-1.99.93.4.31 1.1.64 1.99.93A27.1 27.1 0 0 0 12 6c3.08 0 5.95-.4 8.01-1.07A7.1 7.1 0 0 0 22 4a7.1 7.1 0 0 0-1.99-.93zM6 14.5a1 1 0 0 1-2 0v-5a1 1 0 1 1 2 0v5zm7 1a1 1 0 0 1-2 0v-5a1 1 0 0 1 2 0v5zm7-1a1 1 0 0 1-2 0v-5a1 1 0 0 1 2 0v5z"/>
  </symbol>
  <symbol id="m" viewBox="0 0 20 14">
    <path d="M1.82 10.2c0 .93.66 1.57 1.75 1.57.82 0 1.48-1.1 1.95-2.86-2.93-.28-3.7.09-3.7 1.29zm4.44-1.21l-.74-.08c.14-.54.27-1.14.38-1.79.3-1.79.46-3.94.46-6.18C6.36-.23 8.1-.29 8.17.88a2.96 2.96 0 0 0 .06.41c.17.91.72 1.94 1.53 3a15.55 15.55 0 0 0 1.67 1.85.9.9 0 1 1-1.21 1.35 12.87 12.87 0 0 1-.88-.88 17.12 17.12 0 0 1-1.3-1.6c-.06.74-.14 1.45-.24 2.12-.1.66-.21 1.3-.35 1.88-.69 2.82-1.9 4.58-3.88 4.58-2.08 0-3.57-1.43-3.57-3.4 0-2.68 1.81-3.46 5.9-3.07l.57.06c.44.05.88.03 1.33-.05a6.3 6.3 0 0 0 1.54-.52c.55-.26 1.09-.6 1.58-.98 1.75-1.34 3.04-3.28 3.04-4.72 0-1.21 1.81-1.21 1.81 0 0 2.21.17 4.71.6 6.84.58 2.84 1.49 4.23 2.55 4.03a.9.9 0 0 1 .33 1.8c-2.48.44-3.9-1.74-4.66-5.47-.2-1-.35-2.07-.45-3.15-1.59 2.08-4.13 3.84-6.7 4.05-.39.03-.79.02-1.18-.02z"/>
  </symbol>
  <symbol id="phone" viewBox="-.75 0 14 20">
    <path d="M1.333 0C.6 0 0 .6 0 1.333v17.334C0 19.4.6 20 1.333 20H12c.733 0 1.333-.6 1.333-1.333V1.333C13.333.6 12.733 0 12 0H1.333zM4 13.333H1.333V12H4v1.333zM4 16H1.333v-1.333H4V16zm0 2.667H1.333v-1.334H4v1.334zm4-5.334H5.333V12H8v1.333zM8 16H5.333v-1.333H8V16zm0 2.667H5.333v-1.334H8v1.334zm4-5.334H9.333V12H12v1.333zM12 16H9.333v-1.333H12V16zm0 2.667H9.333v-1.334H12v1.334zm-10.667-8V1.333H12v9.334H1.333z"/>
  </symbol>
</svg>
